<?xml version="1.0" encoding="utf-8"?>
<!-- Generator: Adobe Illustrator 24.2.0, SVG Export Plug-In . SVG Version: 6.00 Build 0)  -->
<svg version="1.1" id="sky_one" xmlns="http://www.w3.org/2000/svg" xmlns:xlink="http://www.w3.org/1999/xlink" x="0px" y="0px"
	 viewBox="0 0 1582.756958 450" enable-background="new 0 0 1582.756958 450" xml:space="preserve">
<g id="rectangle">
	<g>
		<defs>
			<path id="SVGID_3_" d="M748.7392578,0c-16.5606689,0-29.9968262,13.4358521-29.9968262,30.0084553v389.9830933
				C718.7424316,436.5641479,732.1785889,450,748.7392578,450h804.020874c16.5599365,0,29.9968262-13.4358521,29.9968262-30.0084534
				V30.0084553C1582.756958,13.4358521,1569.3200684,0,1552.7601318,0H748.7392578z"/>
		</defs>
		<clipPath id="SVGID_4_">
			<use xlink:href="#SVGID_3_"  overflow="visible"/>
		</clipPath>
		
			<linearGradient id="SVGID_5_" gradientUnits="userSpaceOnUse" x1="718.7424316" y1="226.999939" x2="1582.756958" y2="226.999939" gradientTransform="matrix(1 0 0 -1 0 452)">
			<stop  offset="0" style="stop-color:#0085E3"/>
			<stop  offset="1" style="stop-color:#45DBF9"/>
		</linearGradient>
		<rect x="718.7424316" y="0.0000969" clip-path="url(#SVGID_4_)" fill="url(#SVGID_5_)" width="864.0145264" height="449.999939"/>
	</g>
</g>
<path id="one" fill="#FFFFFF" d="M803.256958,227.5298157c0-63.2846527,46.8914185-110.1761093,109.4156494-110.1761093
	c62.9030762,0,109.4157104,47.2730331,109.4157104,110.1761093c0,63.6655273-46.8914185,110.9364929-109.4157104,110.9364929
	C850.1504517,338.4663086,803.256958,291.1932678,803.256958,227.5298157 M987.013916,227.5298157
	c0-48.7979584-33.5487671-79.6778107-74.3413086-79.6778107c-40.7918091,0-74.3413086,30.8798523-74.3413086,79.6778107
	c0,49.5604248,33.5481567,80.4382019,74.3413086,80.4382019C953.4644775,307.9680176,987.013916,277.0881653,987.013916,227.5298157
	 M1066.9189453,336.385498V121.51091c3.7026367-0.8309631,10.6971436-1.6626129,17.2799072-1.6626129
	c13.9890137,0,18.1033936,5.8187943,18.1033936,14.5469818v15.7937622
	c16.4573975-18.2873383,40.7319336-32.8336258,72.0009766-32.8336258c43.6120605,0,79.8187256,27.8464737,79.8187256,91.851799
	v115.1262512c0,8.7281799-4.9370117,14.131134-19.7491455,14.131134c-6.171875,0-13.1656494-0.8309631-16.8691406-1.6625977
	V213.7792206c0-43.224411-20.9833984-64.0053101-52.6640625-64.0053101c-25.0979004,0-51.4299316,17.0405426-62.5380859,37.4056091
	v136.7381134c0,8.7281799-4.5258789,14.1311646-19.3375244,14.1311646c-5.3486328,0-12.3431396-0.8309937-16.0458984-1.6626282
	L1066.9189453,336.385498z M1497.6166992,242.102829h-164.4379883c5.7407227,40.1869049,33.6254883,63.9710541,75.862793,63.9710541
	c17.6330566,0,31.9854736-4.5110168,45.5179443-9.0213623c9.0213623-3.2807007,13.9421387-4.5110474,17.2229004-4.5110474
	c9.4317627,0,15.9923096,9.0213928,13.9421387,27.8848267c-18.453125,8.6117554-47.9779053,17.6331177-78.7331543,17.6331177
	c-65.611084,0-111.5385742-45.5179749-111.5385742-111.9490204c0-63.1503601,45.5178223-109.0786514,105.7979736-109.0786514
	c65.6109619,0,98.0062256,51.6689835,98.0062256,102.5172653c0,6.9710388-0.4104004,14.352417-1.6400146,22.5538177
	 M1332.7692871,212.1676483h130.4020996c-1.2302246-36.0862274-24.604126-63.9710693-61.9206543-63.9710693
	C1367.6252441,148.196579,1338.1003418,170.3400421,1332.7692871,212.1676483"/>
<g id="reflection_1_">
	<g>
		<defs>
			<path id="SVGID_6_" d="M748.7392578,0c-16.5606689,0-29.9968262,13.4358521-29.9968262,30.0084553v216.3707581v0.2032776
				v-0.2032776c0.0123901-3.1239471,1.2316895-21.1697388,21.5893555-23.1127319
				c0.0128174,0,0.9778442-0.0888519,2.8447266-0.1523132c88.7331543-3.1494446,817.1519775-28.8491516,817.1519775-28.8491516
				c11.3029785-0.4063416,22.402832-8.775238,22.4152832-22.7825317l0.0131836-141.4740295
				C1582.756958,13.4358521,1569.3200684,0,1552.7601318,0H748.7392578z"/>
		</defs>
		<clipPath id="SVGID_7_">
			<use xlink:href="#SVGID_6_"  overflow="visible"/>
		</clipPath>
		<defs>
			
				<filter id="Adobe_OpacityMaskFilter" filterUnits="userSpaceOnUse" x="718.7424316" y="0" width="864.0145264" height="295.0250854">
				<feColorMatrix  type="matrix" values="1 0 0 0 0  0 1 0 0 0  0 0 1 0 0  0 0 0 1 0"/>
			</filter>
		</defs>
		<mask maskUnits="userSpaceOnUse" x="718.7424316" y="0" width="864.0145264" height="295.0250854" id="SVGID_1_">
			<g filter="url(#Adobe_OpacityMaskFilter)">
				<g>
					<g>
						<defs>
							<path id="SVGID_8_" d="M748.7392578,0c-16.5606689,0-29.9968262,13.4358521-29.9968262,30.0084553v216.3707581v0.2032776
								v-0.2032776c0.0123901-3.1239471,1.2316895-21.1697388,21.5893555-23.1127319
								c0.0128174,0,0.9778442-0.0888519,2.8447266-0.1523132c88.7331543-3.1494446,817.1519775-28.8491516,817.1519775-28.8491516
								c11.3029785-0.4063416,22.402832-8.775238,22.4152832-22.7825317l0.0131836-141.4740295
								C1582.756958,13.4358521,1569.3200684,0,1552.7601318,0H748.7392578z"/>
						</defs>
						<clipPath id="SVGID_9_" clip-path="url(#SVGID_7_)">
							<use xlink:href="#SVGID_8_"  overflow="visible"/>
						</clipPath>
					</g>
					<g>
						<defs>
							<path id="SVGID_10_" d="M748.7392578,0c-16.5606689,0-29.9968262,13.4358521-29.9968262,30.0084553v216.3707581v0.2032776
								v-0.2032776c0.0123901-3.1239471,1.2316895-21.1697388,21.5893555-23.1127319
								c0.0128174,0,0.9778442-0.0888519,2.8447266-0.1523132c88.7331543-3.1494446,817.1519775-28.8491516,817.1519775-28.8491516
								c11.3029785-0.4063416,22.402832-8.775238,22.4152832-22.7825317l0.0131836-141.4740295
								C1582.756958,13.4358521,1569.3200684,0,1552.7601318,0H748.7392578z"/>
						</defs>
						<defs>
							<polygon id="SVGID_11_" points="720.6411133,294.9669189 708.8943481,0.3049067 2300.9621582,-48.384243 
								2312.7087402,246.277771 							"/>
						</defs>
						<clipPath id="SVGID_12_" clip-path="url(#SVGID_7_)">
							<use xlink:href="#SVGID_10_"  overflow="visible"/>
						</clipPath>
						<clipPath id="SVGID_13_" clip-path="url(#SVGID_12_)">
							<use xlink:href="#SVGID_11_"  overflow="visible"/>
						</clipPath>
						
							<linearGradient id="SVGID_14_" gradientUnits="userSpaceOnUse" x1="-977.8685303" y1="3138.0595703" x2="-964.9400635" y2="3138.0595703" gradientTransform="matrix(-0.616236 -17.6466923 17.6466923 -0.616236 -54465.1992188 -15114.0107422)">
							<stop  offset="0" style="stop-color:#FFFFFF"/>
							<stop  offset="0.1202861" style="stop-color:#D5D5D5"/>
							<stop  offset="0.2693281" style="stop-color:#A8A8A8"/>
							<stop  offset="0.4194876" style="stop-color:#828282"/>
							<stop  offset="0.5683554" style="stop-color:#656565"/>
							<stop  offset="0.7155626" style="stop-color:#505050"/>
							<stop  offset="0.8603477" style="stop-color:#444444"/>
							<stop  offset="1" style="stop-color:#404040"/>
						</linearGradient>
						<polygon clip-path="url(#SVGID_13_)" fill="url(#SVGID_14_)" points="710.8474121,343.9508972 695.2183838,-47.9659767 
							2310.7543945,-97.3682175 2326.3835449,294.5487671 						"/>
					</g>
				</g>
			</g>
		</mask>
		
			<linearGradient id="SVGID_15_" gradientUnits="userSpaceOnUse" x1="-977.588501" y1="3117.6333008" x2="-964.8890381" y2="3117.6333008" gradientTransform="matrix(-0.6162361 -17.6466923 17.6466923 -0.6162361 -54465.1992188 -15114.0097656)">
			<stop  offset="0" style="stop-color:#FFFFFF"/>
			<stop  offset="1" style="stop-color:#FFFFFF"/>
		</linearGradient>
		
			<polygon opacity="0.32" clip-path="url(#SVGID_7_)" mask="url(#SVGID_1_)" fill="url(#SVGID_15_)" enable-background="new    " points="
			718.7424316,295.0250854 718.7424316,0 1582.756958,0 1582.756958,246.5798798 		"/>
	</g>
</g>
<g id="sky_1_">
	<path id="sky" fill="#EAEAEA" d="M449.5978699,417.6155701c5.3592529,2.7557373,16.2556763,6.0448303,29.9204407,6.3877258
		c23.5074158,0.5206604,36.3087158-8.4577637,45.8207397-29.5131531l126.0576782-280.6547241
		c-5.1941528-2.7684784-16.7761841-5.8797531-26.1107178-6.0576401
		c-16.2556763-0.3300934-38.0484619,2.9462738-51.8783569,36.0914841l-40.8044434,96.1337738l-80.059082-130.1425476
		c-5.181366-1.5620346-17.8179321-3.7970428-26.9741821-3.7970428c-28.358551,0-44.0937195,10.3498688-60.5272827,28.1289368
		l-77.7983704,84.9330139l62.5841064,98.3815613c11.5823975,17.9440613,26.7966614,27.1002502,51.5357666,27.1002502
		c16.2556458,0,29.7301636-3.7970276,35.9656982-6.7305908l-75.3985901-113.4048462l53.427887-56.6135254l87.6665649,137.3938293
		L449.5978699,417.6155701z M284.2216492,311.4620056c0,20.7126465-8.1404114,32.6245422-48.6018829,32.6245422
		c-5.3592529,0-10.0201263-0.3428955-14.5158844-1.028656V68.6131058c0-20.8903198,7.0862579-42.6442032,47.8907166-42.6442032
		c5.181366,0,10.3755188,0.5206757,15.2270508,1.5619316V311.4620056z M200.7590179,270.0368652
		c0,38.6567688-25.2471924,66.7984009-76.605072,72.3353577c-37.1721954,3.9621277-90.9554596-0.6984863-116.5456467-3.6447449
		c-0.8634963-4.1272278-1.5494876-9.3086243-1.5494876-13.4485474c0-33.6658936,18.1481476-41.4251709,35.2673111-41.4251709
		c17.8179436,0,45.8335152,3.0985718,66.5721436,3.0985718c22.9993134,0,29.9204559-7.7592773,29.9204559-15.1883545
		c0-9.6641846-9.1690369-13.6390076-26.9741898-17.093277l-48.7669983-9.3212128
		C21.616087,237.59021,0.0011627,209.626297,0.0011627,179.9353333c0-36.0660858,25.5897961-66.2777176,75.9062881-71.8018799
		c38.0484848-4.1400299,84.3900986,0.5205765,109.8019943,3.6192474c0.8638916,4.3178177,1.3843842,8.4577484,1.3843842,12.9532547
		c0,33.6531906-17.8051453,40.9044876-34.9243164,40.9044876c-13.1442871,0-33.5399246-2.4128113-56.8946304-2.4128113
		c-23.6853027,0-33.5403214,6.5528412-33.5403214,14.4898987c0,8.4577484,9.3345184,11.911911,24.2058029,14.502594
		l46.5191116,8.6355286C180.1726837,209.626297,200.7590179,236.7266541,200.7590179,270.0368652"/>
	<g id="reflection">
		<g>
			<defs>
				<path id="SVGID_16_" d="M573.4064941,143.8577118l-39.8138428,93.8225098l-0.0128174,0.0380707
					c0.0891724-0.1269226,2.6036987-7.3782043,10.2868042-7.6449432c0,0,39.1534424-1.3715515,42.1504517-1.4730835
					c12.7505493-0.444519,17.8815308-9.245163,19.2275391-12.0262299l46.1509399-102.7501602
					c-5.1941528-2.7557831-16.7637939-5.8670502-26.1234741-6.0448456c-0.647644-0.0126877-1.3080444-0.025383-1.9684448-0.025383
					C607.3021851,107.7536469,586.6903076,112.0586777,573.4064941,143.8577118 M75.919075,108.134613
					C25.589798,113.658783,0,143.8577118,0,179.9364929c0,18.5409851,8.4198637,36.3834991,24.5991802,49.0701141
					c12.2807941,8.0640869,24.7390919,11.1880493,37.3373032,13.3596954
					c10.337532,1.765213,34.251503,3.3653107,52.0310745,2.7176208c5.5115662-0.2031708,46.5698853-1.6381836,55.4850616-1.9302979
					c20.8149872-0.7111664,32.0923767,17.0552063,30.9366455,34.834259
					c0.0128021-0.2413635,0.0379944-0.4699097,0.0635681-0.7238464c0-0.0508728,0.0127869-0.1397095,0.0127869-0.2032776
					c0.1902924-2.298584,0.2918396-4.6352234,0.2918396-7.022644c0-33.3103027-20.5735321-60.4106598-68.2991486-69.2112885
					l-46.5191193-8.6355438c-14.871666-2.5905914-24.2057991-6.0448456-24.2057991-14.502594
					c0-7.9243622,9.8550224-14.5025787,33.5399361-14.5025787c23.3423004,0,43.7507324,2.4255829,56.8950195,2.4255829
					c17.1191711,0,34.9243164-7.2513885,34.9243164-40.9171753c0-4.4829102-0.5081024-8.6228409-1.3843842-12.9406509
					c-18.2368927-2.2223206-47.2558746-5.2575378-76.2620697-5.2575378
					C98.0544968,106.4963303,86.650383,106.9662399,75.919075,108.134613 M365.0415039,134.1935272l-77.7987671,84.9330292
					l6.1975708,9.7657318c2.6544189,3.6320343,8.000885,9.6515045,18.4147949,9.2832184
					c3.6954346-0.1397095,41.2869873-1.4349976,44.3475647-1.5493317c9.7406921-0.3428802,15.8999023,3.822525,19.658905,8.8006287
					l-0.0124207-0.0253754l-13.9190369-20.9284973l53.4406738-56.6135254l35.8893433,56.2452545
					c6.527771,8.4831238,16.2684631,8.6355286,18.3512268,8.5593719c1.8796997-0.0635529,48.9065247-1.7144318,51.0021057-1.7778931
					c3.2640991-0.1143188,7.0482788,1.6762695,9.8930054,5.7273407l-77.963501-126.7518387
					c-5.1817322-1.5619278-17.8179321-3.7970428-26.9745483-3.7970428
					C397.2098389,106.0645981,381.4750671,116.414566,365.0415039,134.1935272 M221.0899353,68.6143646v188.0894318
					c0-7.5687866,5.8417664-15.5693207,15.5444794-15.8995209c6.7816162-0.2412415,25.932785-0.9143219,31.5970612-1.1048126
					c6.2355347-0.2159576,15.8491211-4.4448395,15.9890137-16.0519257V27.5194016
					c-4.851532-1.0413532-10.0328979-1.5493374-15.2270508-1.5493374
					C228.1889648,25.9700642,221.0899353,47.7239494,221.0899353,68.6143646"/>
			</defs>
			<clipPath id="SVGID_17_">
				<use xlink:href="#SVGID_16_"  overflow="visible"/>
			</clipPath>
			<defs>
				
					<filter id="Adobe_OpacityMaskFilter_1_" filterUnits="userSpaceOnUse" x="0" y="3.251369" width="660.1855469" height="297.4830322">
					<feColorMatrix  type="matrix" values="1 0 0 0 0  0 1 0 0 0  0 0 1 0 0  0 0 0 1 0"/>
				</filter>
			</defs>
			<mask maskUnits="userSpaceOnUse" x="0" y="3.251369" width="660.1855469" height="297.4830322" id="SVGID_2_">
				<g filter="url(#Adobe_OpacityMaskFilter_1_)">
					<g>
						<g>
							<defs>
								<path id="SVGID_18_" d="M573.4064941,143.8577118l-39.8138428,93.8225098l-0.0128174,0.0380707
									c0.0891724-0.1269226,2.6036987-7.3782043,10.2868042-7.6449432c0,0,39.1534424-1.3715515,42.1504517-1.4730835
									c12.7505493-0.444519,17.8815308-9.245163,19.2275391-12.0262299l46.1509399-102.7501602
									c-5.1941528-2.7557831-16.7637939-5.8670502-26.1234741-6.0448456
									c-0.647644-0.0126877-1.3080444-0.025383-1.9684448-0.025383
									C607.3021851,107.7536469,586.6903076,112.0586777,573.4064941,143.8577118 M75.919075,108.134613
									C25.589798,113.658783,0,143.8577118,0,179.9364929c0,18.5409851,8.4198637,36.3834991,24.5991802,49.0701141
									c12.2807941,8.0640869,24.7390919,11.1880493,37.3373032,13.3596954
									c10.337532,1.765213,34.251503,3.3653107,52.0310745,2.7176208
									c5.5115662-0.2031708,46.5698853-1.6381836,55.4850616-1.9302979
									c20.8149872-0.7111664,32.0923767,17.0552063,30.9366455,34.834259
									c0.0128021-0.2413635,0.0379944-0.4699097,0.0635681-0.7238464c0-0.0508728,0.0127869-0.1397095,0.0127869-0.2032776
									c0.1902924-2.298584,0.2918396-4.6352234,0.2918396-7.022644c0-33.3103027-20.5735321-60.4106598-68.2991486-69.2112885
									l-46.5191193-8.6355438c-14.871666-2.5905914-24.2057991-6.0448456-24.2057991-14.502594
									c0-7.9243622,9.8550224-14.5025787,33.5399361-14.5025787c23.3423004,0,43.7507324,2.4255829,56.8950195,2.4255829
									c17.1191711,0,34.9243164-7.2513885,34.9243164-40.9171753c0-4.4829102-0.5081024-8.6228409-1.3843842-12.9406509
									c-18.2368927-2.2223206-47.2558746-5.2575378-76.2620697-5.2575378
									C98.0544968,106.4963303,86.650383,106.9662399,75.919075,108.134613 M365.0415039,134.1935272l-77.7987671,84.9330292
									l6.1975708,9.7657318c2.6544189,3.6320343,8.000885,9.6515045,18.4147949,9.2832184
									c3.6954346-0.1397095,41.2869873-1.4349976,44.3475647-1.5493317
									c9.7406921-0.3428802,15.8999023,3.822525,19.658905,8.8006287l-0.0124207-0.0253754l-13.9190369-20.9284973
									l53.4406738-56.6135254l35.8893433,56.2452545c6.527771,8.4831238,16.2684631,8.6355286,18.3512268,8.5593719
									c1.8796997-0.0635529,48.9065247-1.7144318,51.0021057-1.7778931
									c3.2640991-0.1143188,7.0482788,1.6762695,9.8930054,5.7273407l-77.963501-126.7518387
									c-5.1817322-1.5619278-17.8179321-3.7970428-26.9745483-3.7970428
									C397.2098389,106.0645981,381.4750671,116.414566,365.0415039,134.1935272 M221.0899353,68.6143646v188.0894318
									c0-7.5687866,5.8417664-15.5693207,15.5444794-15.8995209c6.7816162-0.2412415,25.932785-0.9143219,31.5970612-1.1048126
									c6.2355347-0.2159576,15.8491211-4.4448395,15.9890137-16.0519257V27.5194016
									c-4.851532-1.0413532-10.0328979-1.5493374-15.2270508-1.5493374
									C228.1889648,25.9700642,221.0899353,47.7239494,221.0899353,68.6143646"/>
							</defs>
							<clipPath id="SVGID_19_" clip-path="url(#SVGID_17_)">
								<use xlink:href="#SVGID_18_"  overflow="visible"/>
							</clipPath>
						</g>
						<g>
							<defs>
								<path id="SVGID_20_" d="M573.4064941,143.8577118l-39.8138428,93.8225098l-0.0128174,0.0380707
									c0.0891724-0.1269226,2.6036987-7.3782043,10.2868042-7.6449432c0,0,39.1534424-1.3715515,42.1504517-1.4730835
									c12.7505493-0.444519,17.8815308-9.245163,19.2275391-12.0262299l46.1509399-102.7501602
									c-5.1941528-2.7557831-16.7637939-5.8670502-26.1234741-6.0448456
									c-0.647644-0.0126877-1.3080444-0.025383-1.9684448-0.025383
									C607.3021851,107.7536469,586.6903076,112.0586777,573.4064941,143.8577118 M75.919075,108.134613
									C25.589798,113.658783,0,143.8577118,0,179.9364929c0,18.5409851,8.4198637,36.3834991,24.5991802,49.0701141
									c12.2807941,8.0640869,24.7390919,11.1880493,37.3373032,13.3596954
									c10.337532,1.765213,34.251503,3.3653107,52.0310745,2.7176208
									c5.5115662-0.2031708,46.5698853-1.6381836,55.4850616-1.9302979
									c20.8149872-0.7111664,32.0923767,17.0552063,30.9366455,34.834259
									c0.0128021-0.2413635,0.0379944-0.4699097,0.0635681-0.7238464c0-0.0508728,0.0127869-0.1397095,0.0127869-0.2032776
									c0.1902924-2.298584,0.2918396-4.6352234,0.2918396-7.022644c0-33.3103027-20.5735321-60.4106598-68.2991486-69.2112885
									l-46.5191193-8.6355438c-14.871666-2.5905914-24.2057991-6.0448456-24.2057991-14.502594
									c0-7.9243622,9.8550224-14.5025787,33.5399361-14.5025787c23.3423004,0,43.7507324,2.4255829,56.8950195,2.4255829
									c17.1191711,0,34.9243164-7.2513885,34.9243164-40.9171753c0-4.4829102-0.5081024-8.6228409-1.3843842-12.9406509
									c-18.2368927-2.2223206-47.2558746-5.2575378-76.2620697-5.2575378
									C98.0544968,106.4963303,86.650383,106.9662399,75.919075,108.134613 M365.0415039,134.1935272l-77.7987671,84.9330292
									l6.1975708,9.7657318c2.6544189,3.6320343,8.000885,9.6515045,18.4147949,9.2832184
									c3.6954346-0.1397095,41.2869873-1.4349976,44.3475647-1.5493317
									c9.7406921-0.3428802,15.8999023,3.822525,19.658905,8.8006287l-0.0124207-0.0253754l-13.9190369-20.9284973
									l53.4406738-56.6135254l35.8893433,56.2452545c6.527771,8.4831238,16.2684631,8.6355286,18.3512268,8.5593719
									c1.8796997-0.0635529,48.9065247-1.7144318,51.0021057-1.7778931
									c3.2640991-0.1143188,7.0482788,1.6762695,9.8930054,5.7273407l-77.963501-126.7518387
									c-5.1817322-1.5619278-17.8179321-3.7970428-26.9745483-3.7970428
									C397.2098389,106.0645981,381.4750671,116.414566,365.0415039,134.1935272 M221.0899353,68.6143646v188.0894318
									c0-7.5687866,5.8417664-15.5693207,15.5444794-15.8995209c6.7816162-0.2412415,25.932785-0.9143219,31.5970612-1.1048126
									c6.2355347-0.2159576,15.8491211-4.4448395,15.9890137-16.0519257V27.5194016
									c-4.851532-1.0413532-10.0328979-1.5493374-15.2270508-1.5493374
									C228.1889648,25.9700642,221.0899353,47.7239494,221.0899353,68.6143646"/>
							</defs>
							<defs>
								
									<rect id="SVGID_21_" x="-4.2075706" y="14.6791925" transform="matrix(0.9993902 -0.0349177 0.0349177 0.9993902 -5.1081495 11.464859)" width="659.7857056" height="274.5995178"/>
							</defs>
							<clipPath id="SVGID_22_" clip-path="url(#SVGID_17_)">
								<use xlink:href="#SVGID_20_"  overflow="visible"/>
							</clipPath>
							<clipPath id="SVGID_23_" clip-path="url(#SVGID_22_)">
								<use xlink:href="#SVGID_21_"  overflow="visible"/>
							</clipPath>
							
								<linearGradient id="SVGID_24_" gradientUnits="userSpaceOnUse" x1="-1057.8955078" y1="3092.9318848" x2="-1045.1962891" y2="3092.9318848" gradientTransform="matrix(-0.4144385 -11.8679667 11.8679667 -0.4144385 -36816.5976562 -11036.3583984)">
								<stop  offset="0" style="stop-color:#FFFFFF"/>
								<stop  offset="0.1202861" style="stop-color:#D5D5D5"/>
								<stop  offset="0.2693281" style="stop-color:#A8A8A8"/>
								<stop  offset="0.4194876" style="stop-color:#828282"/>
								<stop  offset="0.5683554" style="stop-color:#656565"/>
								<stop  offset="0.7155626" style="stop-color:#505050"/>
								<stop  offset="0.8603477" style="stop-color:#444444"/>
								<stop  offset="1" style="stop-color:#404040"/>
							</linearGradient>
							<polygon clip-path="url(#SVGID_23_)" fill="url(#SVGID_24_)" points="-7.9861779,324.0387573 -19.1763611,3.613343 
								659.3561401,-20.0807247 670.5459595,300.344696 							"/>
						</g>
					</g>
				</g>
			</mask>
			
				<linearGradient id="SVGID_25_" gradientUnits="userSpaceOnUse" x1="-1057.8953857" y1="3092.8994141" x2="-1045.196167" y2="3092.8994141" gradientTransform="matrix(-0.4144386 -11.8679686 11.8679686 -0.4144386 -36816.6015625 -11036.3603516)">
				<stop  offset="0" style="stop-color:#FFFFFF"/>
				<stop  offset="1" style="stop-color:#FFFFFF"/>
			</linearGradient>
			<polygon clip-path="url(#SVGID_17_)" mask="url(#SVGID_2_)" fill="url(#SVGID_25_)" points="0,300.7344055 0,25.9688053 
				650.6022339,3.251369 660.1855469,277.6810303 			"/>
		</g>
	</g>
</g>
</svg>
