<svg xmlns="http://www.w3.org/2000/svg" xmlns:xlink="http://www.w3.org/1999/xlink" viewBox="0 0 1582.76 450"><defs><style>.cls-1{clip-path:url(#clip-path);}.cls-2{fill:none;}.cls-3{fill:url(#linear-gradient);}.cls-4{clip-path:url(#clip-path-2);}.cls-5{fill:url(#linear-gradient-2);}.cls-6{clip-path:url(#clip-path-3);}.cls-7{fill:url(#linear-gradient-3);}.cls-8{fill:#fff;}.cls-9{clip-path:url(#clip-path-4);}.cls-10{mask:url(#mask);}.cls-11{opacity:0.32;fill:url(#linear-gradient-4);}.cls-12{fill:#eaeaea;}.cls-13{clip-path:url(#clip-path-5);}.cls-14{clip-path:url(#clip-path-6);}.cls-15{mask:url(#mask-2);}.cls-16{fill:url(#linear-gradient-5);}</style><clipPath id="clip-path"><polygon class="cls-2" points="720.64 294.97 708.89 0.3 2300.96 -48.38 2312.71 246.28 720.64 294.97"/></clipPath><linearGradient id="linear-gradient" x1="4994.14" y1="5742.59" x2="5007.07" y2="5742.59" gradientTransform="matrix(-0.62, -17.65, -17.65, 0.62, 105929.1, 84799.63)" gradientUnits="userSpaceOnUse"><stop offset="0" stop-color="#fff"/><stop offset="0.12" stop-color="#d5d5d5"/><stop offset="0.27" stop-color="#a8a8a8"/><stop offset="0.42" stop-color="#828282"/><stop offset="0.57" stop-color="#656565"/><stop offset="0.72" stop-color="#515151"/><stop offset="0.86" stop-color="#444"/><stop offset="1" stop-color="#404040"/></linearGradient><clipPath id="clip-path-2"><rect class="cls-2" x="-4.21" y="14.68" width="659.79" height="274.6" transform="matrix(1, -0.03, 0.03, 1, -5.11, 11.46)"/></clipPath><linearGradient id="linear-gradient-2" x1="5143.56" y1="5931.49" x2="5156.26" y2="5931.49" gradientTransform="matrix(0, -11.88, -11.88, 0, 70763.18, 61317.84)" xlink:href="#linear-gradient"/><clipPath id="clip-path-3"><path class="cls-2" d="M748.74,0a30,30,0,0,0-30,30V420a30,30,0,0,0,30,30h804a30,30,0,0,0,30-30V30a30,30,0,0,0-30-30Z"/></clipPath><linearGradient id="linear-gradient-3" x1="718.74" y1="225" x2="1582.76" y2="225" gradientUnits="userSpaceOnUse"><stop offset="0" stop-color="#0085e3"/><stop offset="1" stop-color="#45dbf9"/></linearGradient><clipPath id="clip-path-4"><path class="cls-2" d="M748.74,0a30,30,0,0,0-30,30V246.38c0-3.12,1.23-21.17,21.59-23.11,0,0,1-.09,2.85-.16,88.73-3.15,817.15-28.84,817.15-28.84,11.3-.41,22.4-8.78,22.41-22.79l0-141.47a30,30,0,0,0-30-30Z"/></clipPath><mask id="mask" x="695.22" y="-97.37" width="1631.17" height="441.32" maskUnits="userSpaceOnUse"><g class="cls-1"><polygon class="cls-3" points="710.85 343.95 695.22 -47.97 2310.75 -97.37 2326.38 294.55 710.85 343.95"/></g></mask><linearGradient id="linear-gradient-4" x1="4994.42" y1="5763.02" x2="5007.12" y2="5763.02" gradientTransform="matrix(-0.62, -17.65, -17.65, 0.62, 105929.1, 84799.63)" gradientUnits="userSpaceOnUse"><stop offset="0" stop-color="#fff"/><stop offset="1" stop-color="#fff"/></linearGradient><clipPath id="clip-path-5"><rect class="cls-2" y="25.97" width="651.4" height="252.02"/></clipPath><clipPath id="clip-path-6"><path class="cls-2" d="M573.41,143.86l-39.82,93.82v0c.09-.13,2.6-7.38,10.29-7.65L586,228.6c12.75-.44,17.88-9.24,19.22-12L651.4,113.82c-5.2-2.75-16.77-5.86-26.13-6-.65,0-1.31,0-2,0-16,0-36.61,4.31-49.89,36.11M75.92,108.13C25.59,113.66,0,143.86,0,179.94,0,198.48,8.42,216.32,24.6,229c12.28,8.06,24.74,11.18,37.34,13.36,10.33,1.76,34.25,3.36,52,2.71l55.48-1.93c20.82-.71,32.09,17.06,30.94,34.84,0-.24,0-.47.06-.73,0-.05,0-.14,0-.2.19-2.3.29-4.63.29-7,0-33.31-20.58-60.41-68.3-69.21l-46.52-8.64c-14.87-2.59-24.21-6-24.21-14.5,0-7.93,9.86-14.5,33.54-14.5,23.35,0,43.75,2.42,56.9,2.42,17.12,0,34.92-7.25,34.92-40.92a64.16,64.16,0,0,0-1.38-12.94c-18.24-2.22-47.26-5.25-76.26-5.25a315.52,315.52,0,0,0-33.53,1.63M365,134.19l-77.8,84.94,6.2,9.76c2.65,3.63,8,9.65,18.42,9.29,3.69-.14,41.28-1.44,44.34-1.55,9.74-.35,15.9,3.82,19.66,8.8v0l-13.92-20.93,53.44-56.61,35.89,56.24c6.53,8.49,16.27,8.64,18.35,8.56,1.88-.06,48.91-1.71,51-1.77,3.27-.12,7,1.67,9.9,5.72l-78-126.75a116.91,116.91,0,0,0-27-3.8c-28.36,0-44.09,10.35-60.53,28.13m-144-65.58V256.7a16,16,0,0,1,15.54-15.9l31.6-1.1c6.24-.22,15.85-4.45,16-16V27.52A73.19,73.19,0,0,0,269,26c-40.8,0-47.9,21.75-47.9,42.64"/></clipPath><mask id="mask-2" x="-19.18" y="-20.08" width="689.72" height="344.12" maskUnits="userSpaceOnUse"><g class="cls-4"><rect class="cls-5" x="-13.79" y="-8.33" width="678.95" height="320.62" transform="translate(-5.11 11.46) rotate(-2)"/></g></mask><linearGradient id="linear-gradient-5" x1="5143.56" y1="5931.52" x2="5156.26" y2="5931.52" gradientTransform="matrix(-0.41, -11.87, -11.87, 0.41, 72855.06, 58822.2)" xlink:href="#linear-gradient-4"/></defs><g id="Layer_2" data-name="Layer 2"><g id="Layer_2-2" data-name="Layer 2"><g id="sky_one_HD" data-name="sky one HD"><g id="rectangle"><g class="cls-6"><rect class="cls-7" x="718.74" width="864.01" height="450"/></g></g><path id="one" class="cls-8" d="M803.26,227.53c0-63.28,46.89-110.18,109.41-110.18,62.91,0,109.42,47.28,109.42,110.18,0,63.67-46.89,110.94-109.42,110.94S803.26,291.19,803.26,227.53m183.75,0c0-48.8-33.54-79.68-74.34-79.68s-74.34,30.88-74.34,79.68c0,49.56,33.55,80.44,74.34,80.44S987,277.09,987,227.53m79.91,108.86V121.51a90.08,90.08,0,0,1,17.28-1.66c14,0,18.1,5.82,18.1,14.55v15.79c16.46-18.29,40.73-32.83,72-32.83,43.62,0,79.82,27.84,79.82,91.85V324.33c0,8.73-4.94,14.13-19.75,14.13a89,89,0,0,1-16.87-1.66v-123c0-43.23-21-64-52.66-64-25.1,0-51.43,17-62.54,37.41V323.92c0,8.73-4.52,14.13-19.34,14.13a86.9,86.9,0,0,1-16-1.66Zm430.7-94.29H1333.18c5.74,40.19,33.62,64,75.86,64,17.63,0,32-4.51,45.52-9,9-3.28,13.94-4.51,17.22-4.51,9.43,0,16,9,13.94,27.89-18.45,8.61-48,17.63-78.73,17.63-65.61,0-111.54-45.52-111.54-111.95C1295.45,163,1341,117,1401.25,117c65.61,0,98,51.67,98,102.52a149.72,149.72,0,0,1-1.64,22.55m-164.85-29.93h130.4c-1.23-36.09-24.6-64-61.92-64-33.62,0-63.15,22.14-68.48,64"/><g id="reflection"><g class="cls-9"><g class="cls-10"><polygon class="cls-11" points="718.74 295.02 718.74 0 1582.76 0 1582.76 246.58 718.74 295.02"/></g></g></g><g id="sky"><path id="sky-2" data-name="sky" class="cls-12" d="M449.6,417.62c5.36,2.75,16.25,6,29.92,6.38,23.51.52,36.31-8.45,45.82-29.51L651.4,113.84c-5.2-2.77-16.78-5.88-26.11-6.06-16.26-.33-38,2.94-51.88,36.09L532.6,240,452.54,109.86a116.91,116.91,0,0,0-27-3.8c-28.36,0-44.09,10.35-60.53,28.13l-77.8,84.94,62.59,98.38c11.58,17.94,26.8,27.1,51.53,27.1,16.26,0,29.73-3.8,36-6.73l-75.4-113.41,53.43-56.61L503,305.25ZM284.22,311.46c0,20.71-8.14,32.63-48.6,32.63a95.53,95.53,0,0,1-14.52-1V68.61C221.1,47.72,228.19,26,269,26a73.26,73.26,0,0,1,15.23,1.56ZM200.76,270c0,38.65-25.25,66.8-76.61,72.33-37.17,4-90.95-.7-116.54-3.64a70.76,70.76,0,0,1-1.55-13.45c0-33.67,18.15-41.43,35.27-41.43,17.81,0,45.83,3.1,66.57,3.1,23,0,29.92-7.76,29.92-15.19,0-9.66-9.17-13.64-27-17.09l-48.76-9.32C21.62,237.59,0,209.63,0,179.94c0-36.07,25.59-66.28,75.91-71.81,38.05-4.14,84.39.52,109.8,3.62a64.93,64.93,0,0,1,1.38,13c0,33.65-17.8,40.9-34.92,40.9-13.14,0-33.54-2.41-56.9-2.41-23.68,0-33.54,6.55-33.54,14.49,0,8.46,9.34,11.91,24.21,14.5l46.52,8.64c47.71,8.8,68.3,35.9,68.3,69.21"/><g id="reflection-2" data-name="reflection"><g class="cls-13"><g class="cls-14"><g class="cls-15"><polygon class="cls-16" points="0 300.73 0 25.97 650.6 3.25 660.19 277.68 0 300.73"/></g></g></g></g></g></g></g></g></svg>